<mxfile host="www.draw.io" modified="2019-12-01T02:14:41.398Z" agent="Mozilla/5.0 (Macintosh; Intel Mac OS X 10_13_6) AppleWebKit/537.36 (KHTML, like Gecko) Chrome/78.0.3904.108 Safari/537.36" etag="Q9qMSKfg3ubBDA7iDXtH" version="12.3.3" type="github" pages="1">
  <diagram id="M6IYkmb3XFoDNZhAVSYl" name="Page-1">
    <mxGraphModel dx="1186" dy="679" grid="1" gridSize="10" guides="1" tooltips="1" connect="1" arrows="1" fold="1" page="1" pageScale="1" pageWidth="827" pageHeight="1169" math="0" shadow="0">
      <root>
        <mxCell id="0"/>
        <mxCell id="1" parent="0"/>
        <mxCell id="jbUb9UtcFSAOGy5wSD08-1" value="project plan" style="shape=ext;double=0;rounded=1;whiteSpace=wrap;html=1;fillColor=none;strokeColor=#000000;" parent="1" vertex="1">
          <mxGeometry x="110" y="290" width="160" height="60" as="geometry"/>
        </mxCell>
        <mxCell id="jbUb9UtcFSAOGy5wSD08-2" value="project start" style="html=1;whiteSpace=wrap;container=1;recursiveResize=0;collapsible=0;rounded=1;" parent="1" vertex="1">
          <mxGeometry x="110" y="130" width="160" height="70" as="geometry"/>
        </mxCell>
        <mxCell id="jbUb9UtcFSAOGy5wSD08-3" value="" style="triangle;html=1;whiteSpace=wrap;" parent="jbUb9UtcFSAOGy5wSD08-2" vertex="1">
          <mxGeometry x="20" y="20" width="20" height="30" as="geometry"/>
        </mxCell>
        <mxCell id="jbUb9UtcFSAOGy5wSD08-4" value="project review" style="html=1;whiteSpace=wrap;aspect=fixed;shape=isoRectangle;" parent="1" vertex="1">
          <mxGeometry x="360" y="272.5" width="158" height="95" as="geometry"/>
        </mxCell>
        <mxCell id="jbUb9UtcFSAOGy5wSD08-16" value="" style="edgeStyle=orthogonalEdgeStyle;rounded=0;orthogonalLoop=1;jettySize=auto;html=1;" parent="1" source="jbUb9UtcFSAOGy5wSD08-6" target="jbUb9UtcFSAOGy5wSD08-8" edge="1">
          <mxGeometry relative="1" as="geometry"/>
        </mxCell>
        <mxCell id="jbUb9UtcFSAOGy5wSD08-6" value="Implementation" style="shape=ext;double=0;rounded=1;whiteSpace=wrap;html=1;fillColor=none;strokeColor=#000000;" parent="1" vertex="1">
          <mxGeometry x="360" y="440" width="160" height="65" as="geometry"/>
        </mxCell>
        <mxCell id="jbUb9UtcFSAOGy5wSD08-17" value="" style="edgeStyle=orthogonalEdgeStyle;rounded=0;orthogonalLoop=1;jettySize=auto;html=1;" parent="1" source="jbUb9UtcFSAOGy5wSD08-8" target="jbUb9UtcFSAOGy5wSD08-10" edge="1">
          <mxGeometry relative="1" as="geometry"/>
        </mxCell>
        <mxCell id="jbUb9UtcFSAOGy5wSD08-20" value="Yes" style="text;html=1;align=center;verticalAlign=middle;resizable=0;points=[];;labelBackgroundColor=#ffffff;" parent="jbUb9UtcFSAOGy5wSD08-17" vertex="1" connectable="0">
          <mxGeometry x="0.3333" y="-1" relative="1" as="geometry">
            <mxPoint as="offset"/>
          </mxGeometry>
        </mxCell>
        <mxCell id="jbUb9UtcFSAOGy5wSD08-19" value="" style="edgeStyle=orthogonalEdgeStyle;rounded=0;orthogonalLoop=1;jettySize=auto;html=1;entryX=1;entryY=0.5;entryDx=0;entryDy=0;" parent="1" source="jbUb9UtcFSAOGy5wSD08-8" target="jbUb9UtcFSAOGy5wSD08-6" edge="1">
          <mxGeometry relative="1" as="geometry">
            <mxPoint x="600" y="480" as="targetPoint"/>
            <Array as="points">
              <mxPoint x="580" y="632"/>
              <mxPoint x="580" y="473"/>
            </Array>
          </mxGeometry>
        </mxCell>
        <mxCell id="jbUb9UtcFSAOGy5wSD08-21" value="No" style="text;html=1;align=center;verticalAlign=middle;resizable=0;points=[];;labelBackgroundColor=#ffffff;" parent="jbUb9UtcFSAOGy5wSD08-19" vertex="1" connectable="0">
          <mxGeometry x="-0.319" y="34" relative="1" as="geometry">
            <mxPoint x="34" y="3" as="offset"/>
          </mxGeometry>
        </mxCell>
        <mxCell id="jbUb9UtcFSAOGy5wSD08-8" value="testing" style="html=1;whiteSpace=wrap;aspect=fixed;shape=isoRectangle;rounded=1;strokeColor=#000000;fillColor=none;" parent="1" vertex="1">
          <mxGeometry x="360" y="584" width="160" height="96" as="geometry"/>
        </mxCell>
        <mxCell id="jbUb9UtcFSAOGy5wSD08-9" value="Launch" style="label;whiteSpace=wrap;html=1;align=center;verticalAlign=bottom;spacingLeft=0;spacingBottom=4;imageAlign=center;imageVerticalAlign=top;image=img/clipart/Gear_128x128.png;rounded=1;strokeColor=#000000;fillColor=none;" parent="1" vertex="1">
          <mxGeometry x="360" y="880" width="160" height="90" as="geometry"/>
        </mxCell>
        <mxCell id="jbUb9UtcFSAOGy5wSD08-22" value="" style="edgeStyle=orthogonalEdgeStyle;rounded=0;orthogonalLoop=1;jettySize=auto;html=1;" parent="1" source="jbUb9UtcFSAOGy5wSD08-10" target="jbUb9UtcFSAOGy5wSD08-9" edge="1">
          <mxGeometry relative="1" as="geometry"/>
        </mxCell>
        <mxCell id="jbUb9UtcFSAOGy5wSD08-10" value="training" style="shape=ext;double=1;rounded=1;whiteSpace=wrap;html=1;strokeColor=#000000;fillColor=none;" parent="1" vertex="1">
          <mxGeometry x="360" y="750" width="160" height="80" as="geometry"/>
        </mxCell>
        <mxCell id="jbUb9UtcFSAOGy5wSD08-11" value="" style="endArrow=classic;html=1;exitX=0.5;exitY=1;exitDx=0;exitDy=0;" parent="1" source="jbUb9UtcFSAOGy5wSD08-2" target="jbUb9UtcFSAOGy5wSD08-1" edge="1">
          <mxGeometry width="50" height="50" relative="1" as="geometry">
            <mxPoint x="200" y="380" as="sourcePoint"/>
            <mxPoint x="210" y="650" as="targetPoint"/>
          </mxGeometry>
        </mxCell>
        <mxCell id="jbUb9UtcFSAOGy5wSD08-12" value="" style="endArrow=classic;html=1;exitX=1;exitY=0.5;exitDx=0;exitDy=0;entryX=-0.006;entryY=0.5;entryDx=0;entryDy=0;entryPerimeter=0;" parent="1" source="jbUb9UtcFSAOGy5wSD08-1" target="jbUb9UtcFSAOGy5wSD08-4" edge="1">
          <mxGeometry width="50" height="50" relative="1" as="geometry">
            <mxPoint x="160" y="670" as="sourcePoint"/>
            <mxPoint x="330" y="520" as="targetPoint"/>
          </mxGeometry>
        </mxCell>
        <mxCell id="jbUb9UtcFSAOGy5wSD08-14" value="Yes" style="endArrow=classic;html=1;exitX=0.506;exitY=0.974;exitDx=0;exitDy=0;exitPerimeter=0;entryX=0.5;entryY=0;entryDx=0;entryDy=0;" parent="1" source="jbUb9UtcFSAOGy5wSD08-4" target="jbUb9UtcFSAOGy5wSD08-6" edge="1">
          <mxGeometry width="50" height="50" relative="1" as="geometry">
            <mxPoint x="430" y="410" as="sourcePoint"/>
            <mxPoint x="480" y="360" as="targetPoint"/>
          </mxGeometry>
        </mxCell>
        <mxCell id="jbUb9UtcFSAOGy5wSD08-15" value="No" style="endArrow=classic;html=1;entryX=0.5;entryY=0;entryDx=0;entryDy=0;exitX=0.494;exitY=0.026;exitDx=0;exitDy=0;exitPerimeter=0;" parent="1" source="jbUb9UtcFSAOGy5wSD08-4" target="jbUb9UtcFSAOGy5wSD08-1" edge="1">
          <mxGeometry width="50" height="50" relative="1" as="geometry">
            <mxPoint x="430" y="280" as="sourcePoint"/>
            <mxPoint x="210" y="250" as="targetPoint"/>
            <Array as="points">
              <mxPoint x="438" y="240"/>
              <mxPoint x="190" y="240"/>
            </Array>
          </mxGeometry>
        </mxCell>
      </root>
    </mxGraphModel>
  </diagram>
</mxfile>
